<svg xmlns="http://www.w3.org/2000/svg" width="214.123" height="48.57" viewBox="0 0 214.123 48.57"><defs><style>.a{fill:#fff;}.a,.b{fill-rule:evenodd;}.b{fill:#ea3339;}</style></defs><g transform="translate(-47.509 426.781)"><g transform="translate(47.509 -426.781)"><path class="a" d="M214.123,55.56h0Z" transform="translate(0 -6.99)"/><g transform="translate(81.938 0)"><g transform="translate(0 0)"><path class="b" d="M83.626,49.705A12.8,12.8,0,0,0,70.984,38.2,12.671,12.671,0,0,0,58.423,50.776a13.262,13.262,0,0,0,2.861,8.114c2.925,4.024,18.837,16.34,22.349,25.242,3.5-8.9,19.4-21.218,22.326-25.242a13.261,13.261,0,0,0,2.861-8.114,12.622,12.622,0,0,0-25.194-1.071Z" transform="translate(-58.423 -38.203)"/><path class="a" d="M110.442,58.519a.544.544,0,0,1,.173.03c.036,1.119-1.467,1.541-2.055,2.3a2.735,2.735,0,0,1-.679.356.238.238,0,0,0-.072.178l.715.326a2.564,2.564,0,0,1-.643-.134,4.227,4.227,0,0,0-2.064.089,1.23,1.23,0,0,1-.516.163v.111l1.964.193.615.311a3.209,3.209,0,0,1,2.263.111c0,.037.136.148.063.23l-1.711.03c-.1.022-.172.052-.1.163l1.231.423a1.231,1.231,0,0,1,.516,1.178c-.516.111-1-.333-1.448-.674a2.3,2.3,0,0,0-1.231-1.282c-.136.437.281,1.2-.172,1.593l-.136.111a1.217,1.217,0,0,1-.308-.03c-.588-.644.48-1.267.308-1.9-.48-.534-1.475-.341-2.263-.423-.778.134-1.295.556-1.956.623-.1.133.209.111.244.222a1.034,1.034,0,0,0,.1.245c.715.2.968.815,1.167,1.43a1.3,1.3,0,0,1,.037.341,1.682,1.682,0,0,1-1.2-.585c-.163-.223-.1-.423-.136-.593-.027-.089-.063-.134-.209-.089-.036.089-.136.118-.172.259l-1.159.734c-.271-.2,0-.622.2-.815a6.782,6.782,0,0,1,.615-.422,1.658,1.658,0,0,0,.317-.059.475.475,0,0,0,.263-.282c0-.222-.4-.252-.679-.274a12.631,12.631,0,0,1-1.819-.2,4.377,4.377,0,0,0-2.78.393c-2.562,1.63-1,5.054-3.657,6.647,1.259,1.1,3.314,1.823,3.594,3.624C98.988,78.875,89.7,80.275,91,86a.645.645,0,0,1,.063.311l.144,1.764c-.045.067-.063.148-.208.118a5.044,5.044,0,0,0-.888-.786,4.309,4.309,0,0,0-.615-1.1c-1.177-1.238-2.48-2.245-3.494-3.453a.605.605,0,0,1-.118-.163l-.3-.259c-1.548-2.156-3.024-5.016-2.264-7.833a4.554,4.554,0,0,1,1.331-2.275.348.348,0,0,0-.027-.134,11.8,11.8,0,0,0-5.043,1.764,5.138,5.138,0,0,1-1.241.815,15.377,15.377,0,0,1-5.757,1.178.291.291,0,0,1-.172-.385l1.856-.882c-.208-.275.235.289-.145-.081a14,14,0,0,1-1.439.311,16.246,16.246,0,0,1-4.871-.163,4.833,4.833,0,0,1-.579-.23.293.293,0,0,1-.073-.341l4.083-.7v-.111a21.015,21.015,0,0,1-4.318-.556c-.516-.259-1.1-.452-1.539-.623-.136-.059-.073-.222-.109-.37l3.187.082c.344-.082-.1-.3-.2-.385a3.079,3.079,0,0,1-1.132-.786.338.338,0,0,1,.2-.311,11.156,11.156,0,0,0,8.238-.111A4.923,4.923,0,0,0,77.461,68.8a16.648,16.648,0,0,1-4.047-.511c-1.584-.726-3.811-.9-5.558-1.26a19.1,19.1,0,0,0-2.571.23c-.063-.03-.063-.067-.063-.149a.576.576,0,0,1,.371-.252,7.132,7.132,0,0,0,4.49-1.942c1.847-1.786,3.847-3.476,6.826-3.95a11.034,11.034,0,0,1,3.6.363,14.5,14.5,0,0,1,2.671,1.178,6.982,6.982,0,0,0,5.766,1.208A5.676,5.676,0,0,0,93.1,61.387a11.084,11.084,0,0,1-2.3-.259,6.73,6.73,0,0,0-.923.423c-.336.422.28,1.089-.336,1.512a1.217,1.217,0,0,1-.181.118c-.308-.081-.136-.452-.2-.7-.254-.274-.489.363-.888.148l.018-.4c.082-.089.244-.089.281-.252-.416-.222-.96-.192-1.376-.5-.507-.03-.986.2-1.43.022a.532.532,0,0,1-.109-.1c.173-.37.924-.23,1.3-.23.552.118.688.393,1.068.541.1.052.127-.1.127-.148-.263-.222-.2-.645-.507-.927,0-.341-.136-.674.109-.9a.39.39,0,0,1,.271.089c.715.467-.253,1.119.344,1.734a1.453,1.453,0,0,0,1.167,0c.372-.252.715-.423,1.051-.615.208-.03-.2-.082.045-.148l-.9-.837c-.1-.1-.1-.222-.172-.334.172-.192.615.052.823.111.2.134.245.171.308.311a1.272,1.272,0,0,0,.209.837,4.024,4.024,0,0,0,2.462.252,4.589,4.589,0,0,1,3.394-1.23c1.277,0,1.612,1.089,2.68,1.282.544.259.48,1.1,1.231,1.186a5.644,5.644,0,0,0,3.3-.259c.343-.9.479-1.823,1.475-2.29.236.467-.144,1.119-.552,1.482-.271.17-.544.192-.615.5.787,0,2.1-.474,3.051-.556.443-.118.715-.341,1.068-.46l.263-.326a1.239,1.239,0,0,1-.136-1.571.421.421,0,0,1,.38.3v.756c.036.089.072.141.208.089.165-.614.382-1.348,1.333-1.518Z" transform="translate(-62.492 -46.371)"/><path class="a" d="M99.344,62.951a2.1,2.1,0,0,1,1.539.889l1.032.452.244.341a4.134,4.134,0,0,0-2.581.845,3.521,3.521,0,0,0-1.421,2.69,4.7,4.7,0,0,1-1.277,3.12,6.107,6.107,0,0,0-.553.482,2.159,2.159,0,0,1-.579-1.749.326.326,0,0,0-.208-.17.6.6,0,0,0-.408.34,2.709,2.709,0,0,0,1.331,2.587.763.763,0,0,1,.208.082c1.747.845,3.386,2.275,3.079,4.321a6.678,6.678,0,0,1-.643,2.275,1.032,1.032,0,0,1-.172.118c-1.892,2.32-5.387,3.868-5.821,6.921a7.264,7.264,0,0,0,.1,2.808c.036.067.1.067.163.171V89.9c-1.748-2.164-3.521-5.158-2.526-8.048.162-.422.2-.793.335-1.127.036-.4.416-.793.136-1.1-.172-.17-.335.059-.471.171-.87,2.379-1.449,4.832-.218,7.07a6.183,6.183,0,0,1-2.164-6.988c.416-1.46,1.548-2.245,2.382-3.342.136-.082.136-.2.2-.281.036-.059.172-.082.235-.163a.2.2,0,0,0-.063-.17.655.655,0,0,0-.209-.089c-1.059.459-1.412,1.519-2.263,2.134a6.654,6.654,0,0,0-1.231,5.025,7.687,7.687,0,0,1-.932-2.023A4.726,4.726,0,0,1,87.655,77.3c.888-1.208,2.5-1.823,3.214-3.06-.018-.089-.1-.111-.263-.171a34.628,34.628,0,0,0-2.852,2.268,6.14,6.14,0,0,0-1.33,1.69l.2-1.1c.851-2.245,3.73-3.06,3.983-5.639a.326.326,0,0,0-.109-.252.467.467,0,0,0-.407-.059c-.452,1.1-.751,2.334-1.956,3.12l-.615.222a11.838,11.838,0,0,0-5.35,1.793,10.28,10.28,0,0,1-5.459,2.031,4.57,4.57,0,0,0,1.512-1.549c-2.263.423-4.843,1.008-7.27.5.516-.252,1.956-.081,2.68-.5a12.44,12.44,0,0,0,1.33-.5c.063-.141.308-.289.208-.511a28.056,28.056,0,0,1-4.427-.311c-.543.03-.86-.244-1.33-.326h2.979a.618.618,0,0,0,.308-.371l-1.023-.444a13.83,13.83,0,0,0,5.613-.371c1.965-.5,2.861-1.852,4.228-2.89a5.454,5.454,0,0,1,1.268-.756.363.363,0,0,0,.063-.422.31.31,0,0,0-.163-.081,6.28,6.28,0,0,1-5.251,1.171,9.5,9.5,0,0,0,1.856-.556,18.84,18.84,0,0,0,1.748-.986c.1-.052.144-.163.2-.311a.277.277,0,0,0-.2-.222c-1.585.956-3.531,1.993-5.767,1.46l3.911-1.593a.317.317,0,0,0,.108-.148.347.347,0,0,0-.108-.252c-2.091.4-3.657,2.053-6.2,1.438l2.915-1.52c.163.03.244-.089.407-.17l.724-.163a.689.689,0,0,0,.1-.17.244.244,0,0,0-.1-.17c-.208-.171-.552,0-.824,0-1.648.674-3.024,2.164-5.35,1.852l1.231-.645a24.925,24.925,0,0,1,5.043-3.905c3.087-1.349,6.582-.3,8.745,1.1a7.7,7.7,0,0,0,2.671,1.1l-1.331.534c-.108.052-.136.171-.208.311a.3.3,0,0,0,.208.215l.716-.422a18.779,18.779,0,0,1,3.06-.7,6.475,6.475,0,0,0,4.906-2.3,4.1,4.1,0,0,1,2.526-1.519,3.359,3.359,0,0,0,.924-.083Z" transform="translate(-65.001 -49.023)"/></g><path class="a" d="M101.065,65.168l.553.081a.438.438,0,0,0,.063.171c0,.052-.027.1-.109.163-.1.089-.335.052-.507.089-.235-.037-.235-.311-.136-.474A.256.256,0,0,0,101.065,65.168ZM85.639,75.291c7.588,0,13.776,1.724,13.776,3.839s-6.188,3.839-13.776,3.839S71.864,81.245,71.864,79.13,78.052,75.291,85.639,75.291Z" transform="translate(-66.468 -52.552)"/></g><path class="b" d="M46.11,99.064a3.721,3.721,0,0,0-.616-2.268,8.419,8.419,0,0,0-1.337-1.43c-.125-.108-.244-.209-.36-.3s-.239-.188-.36-.279a5.412,5.412,0,0,1-.838-.838,1.884,1.884,0,0,1-.4-1.047v-.139a3.742,3.742,0,0,1,.046-.558,2.953,2.953,0,0,1,.163-.6,3.349,3.349,0,0,1,.523-.814,2.7,2.7,0,0,1,.942-.675q-.163.442-.267.826a2.729,2.729,0,0,0-.1.71,1.662,1.662,0,0,0,.221.861,2.073,2.073,0,0,0,.71.675,11.962,11.962,0,0,1,1.779,1.384,7.63,7.63,0,0,1,1.151,1.383,5.573,5.573,0,0,1,.848,2.349,22.682,22.682,0,0,1,.128,2.442,6.54,6.54,0,0,1-.36,2.244,4.129,4.129,0,0,1-.9,1.523,3.922,3.922,0,0,1-1.023.721,4.674,4.674,0,0,1-1.233.419,3.022,3.022,0,0,1-.488.093,4.24,4.24,0,0,1-.465.023,3.738,3.738,0,0,1-.488-.035q-.257-.035-.512-.081a5.939,5.939,0,0,1-1.244-.466,3.8,3.8,0,0,1-.965-.675q-.1-.1-.186-.2t-.186-.2a3.622,3.622,0,0,1-.686-1.14,5.029,5.029,0,0,1-.221-1.673,3.215,3.215,0,0,1,.047-.559,2.542,2.542,0,0,1,.476-1.151,1.336,1.336,0,0,1,1.151-.523,1.063,1.063,0,0,1,.884.325,1.179,1.179,0,0,1,.256.745v.163a1.919,1.919,0,0,1-.2.616.951.951,0,0,1-.36.408v2.209a1.365,1.365,0,0,0,.663,1.232,2.992,2.992,0,0,0,1.43.466h.14a2.8,2.8,0,0,0,1.546-.442,1.407,1.407,0,0,0,.685-1.255V99.064h0Zm13.628,2.21a5.422,5.422,0,0,1-.326,1.977,4.217,4.217,0,0,1-.883,1.418,3.35,3.35,0,0,1-1.442.838,6.349,6.349,0,0,1-1.815.256,6.8,6.8,0,0,1-2-.291,3.65,3.65,0,0,1-1.488-.8,4.081,4.081,0,0,1-.848-1.337,4.215,4.215,0,0,1-.267-1.5,2.808,2.808,0,0,1,.3-1.185,3.057,3.057,0,0,1,.884-1.093,2.48,2.48,0,0,1,1.6-.489.645.645,0,0,0-.105.07.5.5,0,0,0-.1.116,1.682,1.682,0,0,0-.222.359,1.21,1.21,0,0,0-.105.524v3.419a1.348,1.348,0,0,0,.7,1.232,2.967,2.967,0,0,0,1.557.419,3.1,3.1,0,0,0,1.571-.406,1.344,1.344,0,0,0,.709-1.245V97.925a.984.984,0,0,0-.232-.721,1.3,1.3,0,0,0-.512-.325q-.11-.022-.221-.035a1.706,1.706,0,0,0-.2-.012h-1.14V96.25h1.14a1.924,1.924,0,0,0,.2-.012c.069-.008.143-.02.221-.035a.92.92,0,0,0,.512-.29,1.227,1.227,0,0,0,.232-.849v-2.7a1.446,1.446,0,0,0-.616-1.267,2.432,2.432,0,0,0-1.337-.454h-.071a2.371,2.371,0,0,0-1.361.419,1.419,1.419,0,0,0-.616,1.256V93.46a1.249,1.249,0,0,1,.442.373.914.914,0,0,1,.14.372.649.649,0,0,1-.222.488,1.738,1.738,0,0,1-.477.326c-.077.032-.155.058-.232.081a.729.729,0,0,1-.209.035h-.3a1.13,1.13,0,0,1-.232-.023,1.35,1.35,0,0,1-.222-.081q-.178-.08-.36-.151a.665.665,0,0,1-.291-.279,1.423,1.423,0,0,1-.15-.394,2.869,2.869,0,0,1-.116-.745,3.044,3.044,0,0,1,1.105-2.488,4.3,4.3,0,0,1,2.825-.907,5.425,5.425,0,0,1,3.407.894,3.015,3.015,0,0,1,1.128,2.5,3.587,3.587,0,0,1-.546,2.059,2.49,2.49,0,0,1-1.709,1.012,2.934,2.934,0,0,1,1.511.847,2.735,2.735,0,0,1,.744,1.384,1.494,1.494,0,0,1,.047.372v2.138h0Zm11.582-.023a5.763,5.763,0,0,1-.326,2,3.681,3.681,0,0,1-.884,1.418,3.344,3.344,0,0,1-1.477.838,6.71,6.71,0,0,1-1.849.256,7,7,0,0,1-2.035-.291,3.67,3.67,0,0,1-1.5-.8,3.351,3.351,0,0,1-.907-1.326,4.5,4.5,0,0,1-.256-1.512,2.217,2.217,0,0,1,.081-.546,3.954,3.954,0,0,1,.244-.663,3.094,3.094,0,0,1,.9-1.07,2.567,2.567,0,0,1,1.639-.489.141.141,0,0,1-.059.035.613.613,0,0,0-.081.035,1.352,1.352,0,0,0-.3.407,1.368,1.368,0,0,0-.14.639v3.372a1.364,1.364,0,0,0,.721,1.256,3.091,3.091,0,0,0,1.581.419,3.138,3.138,0,0,0,1.6-.419,1.364,1.364,0,0,0,.72-1.256V92.367a1.437,1.437,0,0,0-.628-1.267,2.375,2.375,0,0,0-1.372-.431,2.516,2.516,0,0,0-1.408.418,1.423,1.423,0,0,0-.639,1.279v1.092c.062.047.12.089.175.128a1.211,1.211,0,0,1,.15.128,1.237,1.237,0,0,1,.175.267.591.591,0,0,1,.058.244.612.612,0,0,1-.2.5,1.625,1.625,0,0,1-.476.337q-.128.043-.257.082a.729.729,0,0,1-.209.035h-.326a.63.63,0,0,1-.232-.047,1.344,1.344,0,0,1-.221-.081l-.338-.151a.694.694,0,0,1-.325-.291,2.122,2.122,0,0,1-.186-.407,2.755,2.755,0,0,1-.082-.5l-.012-.244A3,3,0,0,1,63.77,91a4.437,4.437,0,0,1,2.9-.919,5.494,5.494,0,0,1,3.291.976q1.36.977,1.36,3.535v6.653h0Zm3.441-2.931a4.015,4.015,0,0,1,.629-.6,5.38,5.38,0,0,1,1.163-.64,4.022,4.022,0,0,1,1.558-.29,6.917,6.917,0,0,1,1.966.221,2.757,2.757,0,0,1,1.15.663,2.423,2.423,0,0,1,1.163-.663,7.666,7.666,0,0,1,2.046-.221,6.9,6.9,0,0,1,1.558.256,3.539,3.539,0,0,1,.628.244,2.022,2.022,0,0,1,.535.384c.047.047.093.094.14.139a1.048,1.048,0,0,1,.116.14,3.094,3.094,0,0,1,.675,1.326,9.814,9.814,0,0,1,.163,2.047,4.693,4.693,0,0,1-1.023,3.139,3.177,3.177,0,0,1-2.233,1.279h-.14q.4-.278.629-.466a2.322,2.322,0,0,0,.267-.488,3.414,3.414,0,0,0,.2-.628c.015-.108.031-.213.047-.314a1.92,1.92,0,0,0,.023-.29V99.063a1.532,1.532,0,0,0-.616-1.21,2.116,2.116,0,0,0-1.384-.511,2.416,2.416,0,0,0-1.36.406,1.411,1.411,0,0,0-.616,1.268v3.372h-1.7V99.017a1.064,1.064,0,0,0-.163-.582,3.72,3.72,0,0,0-.372-.488.416.416,0,0,0-.059-.047.178.178,0,0,1-.058-.069,4.026,4.026,0,0,0-.582-.279,2.87,2.87,0,0,0-.744-.186.251.251,0,0,0-.116-.023h-.14a2.573,2.573,0,0,0-.884.151,2.7,2.7,0,0,0-.675.337.179.179,0,0,1-.058.069.4.4,0,0,0-.058.047,1.755,1.755,0,0,0-.291.4,3.958,3.958,0,0,0-.221.466,1.328,1.328,0,0,0-.047.348v3.233a3.128,3.128,0,0,0,.059.756.716.716,0,0,0,.174.314l.047.047a1.92,1.92,0,0,1,.221.012,1.247,1.247,0,0,1,.244.058,1.462,1.462,0,0,1,.639.373.981.981,0,0,1,.291.743.837.837,0,0,1-.291.7,1.47,1.47,0,0,1-.639.3c-.094.016-.175.028-.244.035a2.136,2.136,0,0,1-.221.012h-.094a.211.211,0,0,1-.094-.023,1.646,1.646,0,0,1-.686-.267,3.625,3.625,0,0,1-.57-.454q-.062-.083-.128-.163a1.708,1.708,0,0,1-.1-.14.626.626,0,0,0-.058-.094.486.486,0,0,1-.059-.093,3.905,3.905,0,0,1-.512-1.035,7.558,7.558,0,0,1-.209-2.151v-1.14q0-.675.047-1.257a5.679,5.679,0,0,1,.209-1.139,5.526,5.526,0,0,1,.325-.9,7,7,0,0,1,.534-.942,1.646,1.646,0,0,0,.117-.175.731.731,0,0,1,.116-.15,3.254,3.254,0,0,1,.2-.267,1.838,1.838,0,0,1,.244-.244,4.375,4.375,0,0,1,.9-.593q.593-.313,1.78-.8l3.4-1.4q.535-.211.965-.361c.287-.1.547-.189.779-.267.108-.046.217-.089.325-.128a7.122,7.122,0,0,0,1.266-.617,10.035,10.035,0,0,0,1.174-.861A7.231,7.231,0,0,1,84.6,92.712a6.47,6.47,0,0,1-1.652,1.3,6.7,6.7,0,0,1-.732.314q-.354.125-.71.244l-3.373,1.116c-.248.077-.481.156-.7.233s-.419.155-.6.233a5.114,5.114,0,0,0-1.594.918,1.594,1.594,0,0,0-.475,1.247Zm24-1.581a2.134,2.134,0,0,0-.524.7,2.083,2.083,0,0,0-.174.674,1.893,1.893,0,0,0,.28.965c.185.318.387.639.6.965.094.124.186.252.28.384a4.68,4.68,0,0,1,.257.407,2.547,2.547,0,0,1,.255.523,1.671,1.671,0,0,1,.094.546,5.742,5.742,0,0,1-.116,1.349,2.155,2.155,0,0,1-.419.814,3.407,3.407,0,0,1-.232.255l-.3.3a3.18,3.18,0,0,1-1.152.721,6.294,6.294,0,0,1-1.407.349,8.218,8.218,0,0,1-.838.047,7.4,7.4,0,0,1-.812-.047,6.232,6.232,0,0,1-1.407-.349A3.18,3.18,0,0,1,92,104.621a3.145,3.145,0,0,1-.7-1.092,5.713,5.713,0,0,1-.349-1.327,3.61,3.61,0,0,1-.059-.488q-.012-.233-.012-.466V90.831l-1.14.279v-.418l1.978-.582c.123-.032.232-.055.325-.069a1.488,1.488,0,0,1,.255-.023.571.571,0,0,1,.616.314,2.275,2.275,0,0,1,.151.92v12.3a1.282,1.282,0,0,0,.628,1.174,3.208,3.208,0,0,0,1.4.454h.277a2.589,2.589,0,0,0,.338-.023l.338-.047a3.585,3.585,0,0,0,1.372-.685,1.53,1.53,0,0,0,.626-1.246,1.931,1.931,0,0,0-.1-.616,2.429,2.429,0,0,0-.36-.663,7.1,7.1,0,0,1-.5-.825,5.525,5.525,0,0,1-.36-.873,4.7,4.7,0,0,1-.174-.686,3.9,3.9,0,0,1-.058-.663,2,2,0,0,1,2.277-2.117Zm6.187,9.024a2.006,2.006,0,0,1-1.722-.826,4.97,4.97,0,0,1-.838-1.825,5.933,5.933,0,0,1-.186-1c-.03-.325-.046-.612-.046-.86V94.112a4.072,4.072,0,0,1,.07-.721,3.96,3.96,0,0,1,1.581-2.535,4.42,4.42,0,0,1,2.837-.79,4.278,4.278,0,0,1,2.79.79,4.4,4.4,0,0,1,1.327,1.721,4,4,0,0,1,.28.941,5.417,5.417,0,0,1,.068.8l-.023,6.907c0,.248-.013.53-.035.847a5.982,5.982,0,0,1-.151.965,4.431,4.431,0,0,1-.941,1.872,2.766,2.766,0,0,1-2.244.848c-.061,0-.028-.051.1-.151a2.77,2.77,0,0,0,.454-.476,2.511,2.511,0,0,0,.419-.675,2.463,2.463,0,0,0,.186-1V92.3a1.415,1.415,0,0,0-.711-1.292,2.963,2.963,0,0,0-1.569-.43,2.865,2.865,0,0,0-1.523.419,1.377,1.377,0,0,0-.686,1.256v10.279a2.75,2.75,0,0,0,.07.675q.069.28.489.279a.841.841,0,0,1,.731.338,1.361,1.361,0,0,1,.267.732v.069a1.344,1.344,0,0,1-.244.791.857.857,0,0,1-.755.349Z" transform="translate(-34.994 -78.819)"/><path class="b" d="M18.565,124.523H13l-.974,2.269a3.523,3.523,0,0,0-.362,1.253.731.731,0,0,0,.312.576,2.718,2.718,0,0,0,1.354.325v.392H8.8v-.392a2.442,2.442,0,0,0,1.165-.416,6.41,6.41,0,0,0,1.2-2.066l5.059-11.831h.369L21.6,126.589a5.405,5.405,0,0,0,1.1,1.871,2.257,2.257,0,0,0,1.375.485v.392H18.4v-.392a2.126,2.126,0,0,0,1.162-.289.728.728,0,0,0,.3-.593,4.415,4.415,0,0,0-.427-1.473Zm-.3-.786-2.439-5.808-2.5,5.808Zm18.664-8.779v.394a2.346,2.346,0,0,0-1.158.485,4.447,4.447,0,0,0-1,1.592l-5.016,12.237h-.391l-5.385-12.4A6.669,6.669,0,0,0,23.4,116.1a1.774,1.774,0,0,0-.652-.513,2.921,2.921,0,0,0-1.042-.239v-.394H27.58v.394a2.67,2.67,0,0,0-1.3.337.781.781,0,0,0-.3.625,4.779,4.779,0,0,0,.488,1.654l3.658,8.429,3.392-8.32a5.6,5.6,0,0,0,.5-1.708.8.8,0,0,0-.308-.59,2.025,2.025,0,0,0-1.038-.394q-.09-.018-.181-.032v-.394h4.434Zm4.8.784v5.683h3.159a2.585,2.585,0,0,0,1.644-.369,2.388,2.388,0,0,0,.615-1.719h.391v5.007h-.391a5.55,5.55,0,0,0-.3-1.346,1.335,1.335,0,0,0-.627-.583,3.206,3.206,0,0,0-1.336-.213H41.734v4.741a4.568,4.568,0,0,0,.083,1.162.687.687,0,0,0,.3.329,1.838,1.838,0,0,0,.807.12H45.36a6.546,6.546,0,0,0,1.77-.169,2.618,2.618,0,0,0,1.061-.666,8.2,8.2,0,0,0,1.346-1.982h.423l-1.237,3.6H37.641v-.392h.51a2,2,0,0,0,.963-.246.893.893,0,0,0,.464-.506,5.142,5.142,0,0,0,.119-1.39v-9.34a3.1,3.1,0,0,0-.275-1.687,1.639,1.639,0,0,0-1.271-.423h-.51v-.394H48.722l.159,3.149h-.416a4.945,4.945,0,0,0-.492-1.557,1.694,1.694,0,0,0-.8-.648,4.84,4.84,0,0,0-1.5-.16H41.734v0Zm23.4,13.594H61.295l-4.868-6.72c-.358.011-.652.018-.88.018-.091,0-.188,0-.3,0s-.213-.008-.33-.015v4.176a2.963,2.963,0,0,0,.3,1.687,1.514,1.514,0,0,0,1.209.467h.565v.392H50.83v-.392h.54a1.446,1.446,0,0,0,1.3-.593,3.355,3.355,0,0,0,.224-1.56V117.5a2.941,2.941,0,0,0-.3-1.682,1.557,1.557,0,0,0-1.23-.467h-.54v-.394h5.237a12.377,12.377,0,0,1,3.377.336,3.865,3.865,0,0,1,1.845,1.227,3.22,3.22,0,0,1,.757,2.139,3.354,3.354,0,0,1-.865,2.3,4.88,4.88,0,0,1-2.675,1.375l2.968,4.126a7.386,7.386,0,0,0,1.748,1.89,4.481,4.481,0,0,0,1.91.593v.39h0Zm-10.213-7.39c.138,0,.253,0,.351,0s.181.007.242.007a4.673,4.673,0,0,0,3.1-.89,2.844,2.844,0,0,0,1.047-2.27,2.964,2.964,0,0,0-.843-2.189,3.017,3.017,0,0,0-2.233-.844,9.416,9.416,0,0,0-1.665.2v5.979ZM74.9,114.632V119.6h-.391a6.308,6.308,0,0,0-.684-2.28,3.539,3.539,0,0,0-1.408-1.346,3.868,3.868,0,0,0-1.886-.5,2.572,2.572,0,0,0-1.825.672,2.046,2.046,0,0,0-.72,1.531,1.807,1.807,0,0,0,.456,1.2A11.638,11.638,0,0,0,71.569,121a20.813,20.813,0,0,1,2.75,1.662,4.037,4.037,0,0,1,1.137,1.36,3.611,3.611,0,0,1,.4,1.644,3.729,3.729,0,0,1-1.267,2.815,4.592,4.592,0,0,1-3.261,1.183,6.71,6.71,0,0,1-1.18-.1,11.436,11.436,0,0,1-1.361-.383,6.039,6.039,0,0,0-1.309-.338.569.569,0,0,0-.421.159,1.289,1.289,0,0,0-.228.659h-.391v-4.93h.391a6.984,6.984,0,0,0,.746,2.316A3.584,3.584,0,0,0,69,128.329a4.439,4.439,0,0,0,2.1.506,3,3,0,0,0,2.1-.7,2.175,2.175,0,0,0,.767-1.654,2.263,2.263,0,0,0-.289-1.071,3.215,3.215,0,0,0-.909-1.007,26.269,26.269,0,0,0-2.259-1.353,21.935,21.935,0,0,1-2.624-1.647,4.535,4.535,0,0,1-1.183-1.356,3.386,3.386,0,0,1-.4-1.636,3.527,3.527,0,0,1,1.187-2.663,4.232,4.232,0,0,1,3.022-1.119,6.035,6.035,0,0,1,2.428.561,2.484,2.484,0,0,0,.836.265.634.634,0,0,0,.452-.164,1.349,1.349,0,0,0,.282-.662H74.9Zm8.823,14.313v.392H77.559v-.392h.511a1.53,1.53,0,0,0,1.292-.521,3.219,3.219,0,0,0,.257-1.632V117.5a4.811,4.811,0,0,0-.137-1.44.972.972,0,0,0-.434-.457,2.018,2.018,0,0,0-.977-.252H77.56v-.394h6.163v.394H83.2a1.524,1.524,0,0,0-1.282.517,3.1,3.1,0,0,0-.267,1.632v9.29a4.778,4.778,0,0,0,.138,1.441.959.959,0,0,0,.445.456,1.948,1.948,0,0,0,.966.257h.52Z" transform="translate(125.769 -104.883)"/></g></g></svg>